# xmcd
#
# Track frame offsets: 
#        150
#        11722
#        24756
#        43040
#        58184
#        65351
#        78957
#        92376
#        109441
#        125035
#        139410
#        156804
#        168797
#
# Disc length: 2404 seconds
#
# Revision: 0
# Processed by: cddbd v1.5.2PL0 Copyright (c) Steve Scherf et al.
# Submitted via: ExactAudioCopyFreeDBPlugin 1.0
#
DISCID=a609620d
DTITLE=Southern Kings - Case Closed
DYEAR=1994
DGENRE=Country
TTITLE0=Southern Girls
TTITLE1=Sunny Side
TTITLE2=Guzzleshop
TTITLE3=Rosa Lee
TTITLE4=Honky Tonk Man
TTITLE5=Be There
TTITLE6=Weekend Blues
TTITLE7=Not The One
TTITLE8=Saviour
TTITLE9=Sidewalk Kids
TTITLE10=Leave Some Rubber
TTITLE11=Crome, Pain 'N' Convertibles
TTITLE12=Troubles
EXTD=
EXTT0=
EXTT1=
EXTT2=
EXTT3=
EXTT4=
EXTT5=
EXTT6=
EXTT7=
EXTT8=
EXTT9=
EXTT10=
EXTT11=
EXTT12=
PLAYORDER=
